DataType=double
version=3
OpenSimVersion=4.5.2-2025-05-03-6a4c6ec41
endheader
time	q	/jointset/head_joint/q/speed
1.499999999999946	-0.08921522520952058	0.03198559240367628
1.500999999999945	-0.08917123823889572	0.05598824393912585
1.501999999999945	-0.0891032862703853	0.07991553101855929
1.502999999999945	-0.0890114436815085	0.1037694276919967
1.503999999999945	-0.08889578418145028	0.127549296575918
1.504999999999945	-0.08878487617749946	0.09426644680687044
1.505999999999945	-0.08870011495931153	0.07525578740922714
1.506999999999945	-0.08863609836601906	0.05277724649192252
1.507999999999945	-0.08859408832842296	0.03124272850309512
1.508999999999945	-0.08857238135330216	0.0121711699655374
1.509999999999944	-0.08856873006386823	-0.004868599806319821
1.510999999999944	-0.08858118143491003	-0.02003411257969671
1.511999999999944	-0.08860796076168438	-0.03352447709811381
1.512999999999944	-0.08864747536521375	-0.04550463571534444
1.513999999999944	-0.0886982910354713	-0.05612658360108179
1.514999999999944	-0.08875911751788154	-0.06552623614498687
1.515999999999944	-0.08882879378801913	-0.07382613794955059
1.516999999999944	-0.08890627521243555	-0.0811365260882549
1.517999999999944	-0.08899062189053557	-0.08755662894441757
1.518999999999944	-0.08906217260688903	-0.05554463311478528
1.519999999999943	-0.08910653574763135	-0.0331815425647343
1.520999999999943	-0.08912738168958823	-0.008510291632070319
1.521999999999943	-0.08912388914479287	0.01549537289315751
1.522999999999943	-0.08909635400726276	0.03957483649651141
1.523999999999943	-0.08904479449209569	0.06354407086918083
1.524999999999943	-0.08896929802041767	0.08744869242823557
1.525999999999943	-0.08886993495110704	0.1112772092108434
1.526999999999943	-0.08877527441932957	0.07804362857558514
1.527999999999943	-0.08870671142960958	0.05908218733821007
1.528999999999942	-0.08865884378906205	0.03665297958949271
1.529999999999942	-0.08863265240433753	0.01572972739125973
1.530999999999942	-0.08862613821815535	-0.002701370563711558
1.531999999999942	-0.08863707521308423	-0.01917259320849792
1.532999999999942	-0.0886635664864958	-0.03380989043111361
1.533999999999942	-0.08870387869555799	-0.04681443154611094
1.534999999999942	-0.08875645869025442	-0.05834543244068217
1.535999999999942	-0.08881990729208583	-0.06855161989465364
1.536999999999942	-0.08889296593864793	-0.07756549898275709
1.537999999999941	-0.08897450211623238	-0.08550666172158883
1.538999999999941	-0.08904381833779808	-0.05312561609106599
1.539999999999941	-0.08908581296558193	-0.03086353932021676
1.540999999999941	-0.08910433296541652	-0.006176416179204208
1.541999999999941	-0.08909851314719194	0.0178160387482353
1.542999999999941	-0.089068660336358	0.04188951172134824
1.543999999999941	-0.08901479004275926	0.06585094699619275
1.544999999999941	-0.08893699037339198	0.08974820618612527
1.545999999999941	-0.08883533152949809	0.1135692391433092
1.54699999999994	-0.08873838269820719	0.08032819221157815
1.54799999999994	-0.08866753888371078	0.06135926781460979
1.54899999999994	-0.08861739790562435	0.03892256876842377
1.54999999999994	-0.08858917468217441	0.01752381081683806
1.55099999999994	-0.08858101649659503	-0.00120745911604677
1.55199999999994	-0.08859060495731388	-0.01796943945238371
1.55299999999994	-0.08861601578283536	-0.03285215098370715
1.55399999999994	-0.08865547715449131	-0.04607049820994469
1.55499999999994	-0.08870740476617137	-0.05778460129955518
1.555999999999939	-0.08877037056704698	-0.06814685027501949
1.556999999999939	-0.08884309024819362	-0.07729233857915274
1.557999999999939	-0.08892440809647044	-0.08534316402978631
1.558999999999939	-0.08899354798330653	-0.0529364447434599
1.559999999999939	-0.08903535743024905	-0.03068234942638318
1.560999999999939	-0.08905369604507699	-0.005994836492129656
1.561999999999939	-0.08904769549217029	0.01799592799430628
1.562999999999939	-0.08901766337762114	0.04206822947773477
1.563999999999939	-0.0889636150155092	0.06602836584094544
1.564999999999938	-0.0888856385598718	0.08992435945908756
1.565999999999938	-0.0888122985849074	0.05675541555187257
